{
  "accessors": [
    {
      "bufferView": 1,
      "componentType": 5126,
      "count": 912,
      "max": [
        1,
        0.92834997177124023,
        0.98246997594833374
      ],
      "min": [
        -1,
        -1,
        -0.91337001323699951
      ],
      "type": "VEC3"
    },
    {
      "bufferView": 1,
      "byteOffset": 10944,
      "componentType": 5126,
      "count": 912,
      "max": [
        0.99100399017333984,
        0.85243868827819824,
        0.90334248542785645
      ],
      "min": [
        -0.99290567636489868,
        -0.99281275272369385,
        -0.97694963216781616
      ],
      "type": "VEC3"
    },
    {
      "bufferView": 0,
      "componentType": 5125,
      "count": 912,
      "max": [
        911
      ],
      "min": [
        0
      ],
      "type": "SCALAR"
    },
    {
      "bufferView": 1,
      "byteOffset": 21888,
      "componentType": 5126,
      "count": 554,
      "max": [
        1.0730099678039551,
        1.0477999448776245,
        0.71773999929428101
      ],
      "min": [
        -0.70165997743606567,
        -1.0051300525665283,
        -0.75559002161026001
      ],
      "type": "VEC3"
    },
    {
      "bufferView": 1,
      "byteOffset": 28536,
      "componentType": 5126,
      "count": 554,
      "max": [
        0.99652093648910522,
        0.99917322397232056,
        0.71091878414154053
      ],
      "min": [
        -0.88858550786972046,
        -0.96893483400344849,
        -0.74488729238510132
      ],
      "type": "VEC3"
    },
    {
      "bufferView": 0,
      "byteOffset": 3648,
      "componentType": 5125,
      "count": 810,
      "max": [
        553
      ],
      "min": [
        0
      ],
      "type": "SCALAR"
    },
    {
      "bufferView": 1,
      "byteOffset": 35184,
      "componentType": 5126,
      "count": 120,
      "max": [
        0.38148000836372375,
        0.35578000545501709,
        1.0391700267791748
      ],
      "min": [
        -0.36913999915122986,
        -0.38249000906944275,
        -0.96285998821258545
      ],
      "type": "VEC3"
    },
    {
      "bufferView": 1,
      "byteOffset": 36624,
      "componentType": 5126,
      "count": 120,
      "max": [
        0.42428818345069885,
        0.37711095809936523,
        0.99714714288711548
      ],
      "min": [
        -0.40591883659362793,
        -0.42539897561073303,
        -0.99676311016082764
      ],
      "type": "VEC3"
    },
    {
      "bufferView": 0,
      "byteOffset": 6888,
      "componentType": 5125,
      "count": 120,
      "max": [
        119
      ],
      "min": [
        0
      ],
      "type": "SCALAR"
    },
    {
      "bufferView": 1,
      "byteOffset": 38064,
      "componentType": 5126,
      "count": 1084,
      "max": [
        1.0596100091934204,
        0.9674299955368042,
        1.0010800361633301
      ],
      "min": [
        -1.0274800062179565,
        -1.0051300525665283,
        -0.93230998516082764
      ],
      "type": "VEC3"
    },
    {
      "bufferView": 1,
      "byteOffset": 51072,
      "componentType": 5126,
      "count": 1084,
      "max": [
        0.99820345640182495,
        0.991660475730896,
        0.9971432089805603
      ],
      "min": [
        -0.99924606084823608,
        -0.98480904102325439,
        -0.994651198387146
      ],
      "type": "VEC3"
    },
    {
      "bufferView": 0,
      "byteOffset": 7368,
      "componentType": 5125,
      "count": 1626,
      "max": [
        1083
      ],
      "min": [
        0
      ],
      "type": "SCALAR"
    },
    {
      "bufferView": 1,
      "byteOffset": 64080,
      "componentType": 5126,
      "count": 48,
      "max": [
        -0.17639000713825226,
        0.49842000007629395,
        0.44198000431060791
      ],
      "min": [
        -1.0436700582504272,
        -0.97978001832962036,
        -0.4616599977016449
      ],
      "type": "VEC3"
    },
    {
      "bufferView": 1,
      "byteOffset": 64656,
      "componentType": 5126,
      "count": 48,
      "max": [
        -0.30157962441444397,
        0.35760971903800964,
        0.51652073860168457
      ],
      "min": [
        -0.98912316560745239,
        -0.92896753549575806,
        -0.47766858339309692
      ],
      "type": "VEC3"
    },
    {
      "bufferView": 0,
      "byteOffset": 13872,
      "componentType": 5125,
      "count": 48,
      "max": [
        47
      ],
      "min": [
        0
      ],
      "type": "SCALAR"
    },
    {
      "bufferView": 1,
      "byteOffset": 65232,
      "componentType": 5126,
      "count": 890,
      "max": [
        1.1345299482345581,
        1.1941800117492676,
        0.63564002513885498
      ],
      "min": [
        -0.080849997699260712,
        -1.0441000461578369,
        -0.63012999296188354
      ],
      "type": "VEC3"
    },
    {
      "bufferView": 1,
      "byteOffset": 75912,
      "componentType": 5126,
      "count": 890,
      "max": [
        0.98941576480865479,
        0.95698261260986328,
        0.97977441549301147
      ],
      "min": [
        -0.9521973729133606,
        -0.97919535636901855,
        -0.99266904592514038
      ],
      "type": "VEC3"
    },
    {
      "bufferView": 0,
      "byteOffset": 14064,
      "componentType": 5125,
      "count": 1332,
      "max": [
        889
      ],
      "min": [
        0
      ],
      "type": "SCALAR"
    },
    {
      "bufferView": 1,
      "byteOffset": 86592,
      "componentType": 5126,
      "count": 72,
      "max": [
        -0.41016000509262085,
        -0.0058100000023841858,
        0.40018999576568604
      ],
      "min": [
        -1.1318900585174561,
        -0.96694999933242798,
        -0.41319000720977783
      ],
      "type": "VEC3"
    },
    {
      "bufferView": 1,
      "byteOffset": 87456,
      "componentType": 5126,
      "count": 72,
      "max": [
        0.10133030265569687,
        0.39577141404151917,
        0.7910735011100769
      ],
      "min": [
        -0.9793010950088501,
        -0.89444470405578613,
        -0.74891448020935059
      ],
      "type": "VEC3"
    },
    {
      "bufferView": 0,
      "byteOffset": 19392,
      "componentType": 5125,
      "count": 72,
      "max": [
        71
      ],
      "min": [
        0
      ],
      "type": "SCALAR"
    }
  ],
  "asset": {
    "extras": {
      "author": "lucasf.lima74 (https://sketchfab.com/lucasf.lima74)",
      "license": "CC-BY-4.0 (http://creativecommons.org/licenses/by/4.0/)",
      "source": "https://sketchfab.com/models/fe34267185b146c59e408f4e24355003",
      "title": "Earth Low Poly"
    },
    "generator": "Sketchfab-3.18.7",
    "version": "2.0"
  },
  "bufferViews": [
    {
      "buffer": 0,
      "byteLength": 19680,
      "byteOffset": 0,
      "name": "floatBufferViews",
      "target": 34963
    },
    {
      "buffer": 0,
      "byteLength": 88320,
      "byteOffset": 19680,
      "byteStride": 12,
      "name": "floatBufferViews",
      "target": 34962
    }
  ],
  "buffers": [
    {
      "byteLength": 108000,
      "uri": "scene.bin"
    }
  ],
  "materials": [
    {
      "doubleSided": true,
      "emissiveFactor": [
        0,
        0,
        0
      ],
      "name": "agua",
      "pbrMetallicRoughness": {
        "baseColorFactor": [
          0,
          0.21579575540000001,
          1,
          1
        ],
        "metallicFactor": 0,
        "roughnessFactor": 0.59999999999999998
      }
    },
    {
      "doubleSided": true,
      "emissiveFactor": [
        0,
        0,
        0
      ],
      "name": "Grama",
      "pbrMetallicRoughness": {
        "baseColorFactor": [
          0,
          0.36723756790000001,
          0.0030464571999999999,
          1
        ],
        "metallicFactor": 0,
        "roughnessFactor": 0.59999999999999998
      }
    },
    {
      "doubleSided": true,
      "emissiveFactor": [
        0,
        0,
        0
      ],
      "name": "gelo",
      "pbrMetallicRoughness": {
        "baseColorFactor": [
          1,
          1,
          1,
          1
        ],
        "metallicFactor": 0,
        "roughnessFactor": 0.59999999999999998
      }
    },
    {
      "doubleSided": true,
      "emissiveFactor": [
        0,
        0,
        0
      ],
      "name": "terra",
      "pbrMetallicRoughness": {
        "baseColorFactor": [
          0.066806480299999998,
          0.042854875299999998,
          0.0095885125999999998,
          1
        ],
        "metallicFactor": 0,
        "roughnessFactor": 0.59999999999999998
      }
    },
    {
      "doubleSided": true,
      "emissiveFactor": [
        0,
        0,
        0
      ],
      "name": "areia",
      "pbrMetallicRoughness": {
        "baseColorFactor": [
          0.80000007149999997,
          0.68610340359999999,
          0.1371342391,
          1
        ],
        "metallicFactor": 0,
        "roughnessFactor": 0.59999999999999998
      }
    },
    {
      "doubleSided": true,
      "emissiveFactor": [
        0,
        0,
        0
      ],
      "name": "Montanha",
      "pbrMetallicRoughness": {
        "baseColorFactor": [
          0,
          0.28829592469999998,
          0.0027291134000000002,
          1
        ],
        "metallicFactor": 0,
        "roughnessFactor": 0.59999999999999998
      }
    },
    {
      "doubleSided": true,
      "emissiveFactor": [
        0,
        0,
        0
      ],
      "name": "Montanha.001",
      "pbrMetallicRoughness": {
        "baseColorFactor": [
          0.57047092909999997,
          0.52707803249999996,
          0.1908666342,
          1
        ],
        "metallicFactor": 0,
        "roughnessFactor": 0.59999999999999998
      }
    }
  ],
  "meshes": [
    {
      "name": "Sphere_0",
      "primitives": [
        {
          "attributes": {
            "NORMAL": 1,
            "POSITION": 0
          },
          "indices": 2,
          "material": 0,
          "mode": 4
        }
      ]
    },
    {
      "name": "Sphere_1",
      "primitives": [
        {
          "attributes": {
            "NORMAL": 4,
            "POSITION": 3
          },
          "indices": 5,
          "material": 1,
          "mode": 4
        }
      ]
    },
    {
      "name": "Sphere_2",
      "primitives": [
        {
          "attributes": {
            "NORMAL": 7,
            "POSITION": 6
          },
          "indices": 8,
          "material": 2,
          "mode": 4
        }
      ]
    },
    {
      "name": "Sphere_3",
      "primitives": [
        {
          "attributes": {
            "NORMAL": 10,
            "POSITION": 9
          },
          "indices": 11,
          "material": 3,
          "mode": 4
        }
      ]
    },
    {
      "name": "Sphere_4",
      "primitives": [
        {
          "attributes": {
            "NORMAL": 13,
            "POSITION": 12
          },
          "indices": 14,
          "material": 4,
          "mode": 4
        }
      ]
    },
    {
      "name": "Sphere_5",
      "primitives": [
        {
          "attributes": {
            "NORMAL": 16,
            "POSITION": 15
          },
          "indices": 17,
          "material": 5,
          "mode": 4
        }
      ]
    },
    {
      "name": "Sphere_6",
      "primitives": [
        {
          "attributes": {
            "NORMAL": 19,
            "POSITION": 18
          },
          "indices": 20,
          "material": 6,
          "mode": 4
        }
      ]
    }
  ],
  "nodes": [
    {
      "children": [
        1
      ],
      "name": "RootNode (gltf orientation matrix)",
      "rotation": [
        -0.70710678118654746,
        -0,
        -0,
        0.70710678118654757
      ]
    },
    {
      "children": [
        2
      ],
      "name": "RootNode (model correction matrix)"
    },
    {
      "children": [
        3,
        5
      ],
      "name": "Root"
    },
    {
      "children": [
        4
      ],
      "matrix": [
        -0.55879000000000012,
        -0.048920000000000005,
        -0.82786000000000004,
        0,
        0.19025000000000003,
        -0.97919999999999996,
        -0.070550000000000002,
        0,
        -0.80719000000000007,
        -0.19692000000000004,
        0.55647000000000002,
        0,
        -6.8526899999999999,
        -0.86154000000000008,
        1.8400300000000001,
        1
      ],
      "name": "Lamp"
    },
    {
      "name": "Lamp"
    },
    {
      "children": [
        6,
        7,
        8,
        9,
        10,
        11,
        12
      ],
      "matrix": [
        0.9539200000000001,
        0.12310000000000001,
        0.27363999999999999,
        0,
        -0.12798000000000001,
        0.99177999999999999,
        0,
        0,
        -0.27139000000000002,
        -0.035020000000000003,
        0.96183000000000007,
        0,
        0,
        0,
        0,
        1
      ],
      "name": "Sphere"
    },
    {
      "mesh": 0,
      "name": "Sphere_0"
    },
    {
      "mesh": 1,
      "name": "Sphere_1"
    },
    {
      "mesh": 2,
      "name": "Sphere_2"
    },
    {
      "mesh": 3,
      "name": "Sphere_3"
    },
    {
      "mesh": 4,
      "name": "Sphere_4"
    },
    {
      "mesh": 5,
      "name": "Sphere_5"
    },
    {
      "mesh": 6,
      "name": "Sphere_6"
    }
  ],
  "scene": 0,
  "scenes": [
    {
      "name": "OSG_Scene",
      "nodes": [
        0
      ]
    }
  ]
}

