{
  "accessors": [
    {
      "bufferView": 2,
      "componentType": 5126,
      "count": 280,
      "max": [
        0.11088579893112183,
        4.4860620498657227,
        5.7759609222412109
      ],
      "min": [
        -0.11093834042549133,
        0.70153522491455078,
        -5.7561993598937988
      ],
      "type": "VEC3"
    },
    {
      "bufferView": 2,
      "byteOffset": 3360,
      "componentType": 5126,
      "count": 280,
      "max": [
        0.99997377395629883,
        0.86909449100494385,
        0.81864726543426514
      ],
      "min": [
        -0.9999738335609436,
        -0.86914569139480591,
        -0.82205456495285034
      ],
      "type": "VEC3"
    },
    {
      "bufferView": 3,
      "componentType": 5126,
      "count": 280,
      "max": [
        0.81570005416870117,
        0.78535491228103638,
        0.7731507420539856,
        1
      ],
      "min": [
        -0.81570082902908325,
        0.29858866333961487,
        -0.87046802043914795,
        -1
      ],
      "type": "VEC4"
    },
    {
      "bufferView": 1,
      "componentType": 5126,
      "count": 280,
      "max": [
        0.94962441921234131,
        0.98817288875579834
      ],
      "min": [
        0.021233301609754562,
        0.023378580808639526
      ],
      "type": "VEC2"
    },
    {
      "bufferView": 1,
      "byteOffset": 2240,
      "componentType": 5126,
      "count": 280,
      "max": [
        0.94962441921234131,
        0.98817288875579834
      ],
      "min": [
        0.021233301609754562,
        0.023378580808639526
      ],
      "type": "VEC2"
    },
    {
      "bufferView": 0,
      "componentType": 5125,
      "count": 876,
      "max": [
        279
      ],
      "min": [
        0
      ],
      "type": "SCALAR"
    }
  ],
  "asset": {
    "extras": {
      "author": "Matt Kwiatkowski (https://sketchfab.com/MattKwiatkowski)",
      "license": "CC-BY-4.0 (http://creativecommons.org/licenses/by/4.0/)",
      "source": "https://sketchfab.com/3d-models/the-executioner-dd801ca536ee46f99c30dff2a6b3d7f6",
      "title": "The Executioner"
    },
    "generator": "Sketchfab-7.10.0",
    "version": "2.0"
  },
  "bufferViews": [
    {
      "buffer": 0,
      "byteLength": 3504,
      "byteOffset": 0,
      "name": "floatBufferViews",
      "target": 34963
    },
    {
      "buffer": 0,
      "byteLength": 4480,
      "byteOffset": 3504,
      "byteStride": 8,
      "name": "floatBufferViews",
      "target": 34962
    },
    {
      "buffer": 0,
      "byteLength": 6720,
      "byteOffset": 7984,
      "byteStride": 12,
      "name": "floatBufferViews",
      "target": 34962
    },
    {
      "buffer": 0,
      "byteLength": 4480,
      "byteOffset": 14704,
      "byteStride": 16,
      "name": "floatBufferViews",
      "target": 34962
    }
  ],
  "buffers": [
    {
      "byteLength": 19184,
      "uri": "scene.bin"
    }
  ],
  "images": [
    {
      "uri": "textures/lambert1_baseColor.png"
    }
  ],
  "materials": [
    {
      "doubleSided": true,
      "emissiveFactor": [
        0.5,
        0.5,
        0.5
      ],
      "emissiveTexture": {
        "index": 0,
        "texCoord": 0
      },
      "name": "lambert1",
      "pbrMetallicRoughness": {
        "baseColorFactor": [
          1,
          1,
          1,
          1
        ],
        "baseColorTexture": {
          "index": 0,
          "texCoord": 0
        },
        "metallicFactor": 0,
        "roughnessFactor": 0.59999999999999998
      }
    }
  ],
  "meshes": [
    {
      "name": "pCylinder10_lambert1_0",
      "primitives": [
        {
          "attributes": {
            "NORMAL": 1,
            "POSITION": 0,
            "TANGENT": 2,
            "TEXCOORD_0": 3,
            "TEXCOORD_1": 4
          },
          "indices": 5,
          "material": 0,
          "mode": 4
        }
      ]
    }
  ],
  "nodes": [
    {
      "children": [
        1
      ],
      "name": "RootNode (gltf orientation matrix)",
      "rotation": [
        -0.70710678118654746,
        -0,
        -0,
        0.70710678118654757
      ]
    },
    {
      "children": [
        2
      ],
      "name": "RootNode (model correction matrix)"
    },
    {
      "children": [
        3
      ],
      "matrix": [
        1,
        0,
        0,
        0,
        0,
        0,
        1,
        0,
        0,
        -1,
        0,
        0,
        0,
        0,
        0,
        1
      ],
      "name": "7d679e8e9762454db44490f8f49f72b6.fbx"
    },
    {
      "children": [
        4
      ],
      "name": "RootNode"
    },
    {
      "children": [
        5
      ],
      "matrix": [
        0.78906088859947876,
        0.54036490523033853,
        -0.29221342076983448,
        0,
        -0.61431499581452598,
        0.69407521417197615,
        -0.37533542730406427,
        0,
        -6.9388939039072284e-16,
        0.47567359214857913,
        0.87962186974430501,
        0,
        1.5934038162231445,
        0.78882145881652832,
        1.1052327156066895,
        1
      ],
      "name": "pCylinder10"
    },
    {
      "mesh": 0,
      "name": "pCylinder10_lambert1_0"
    }
  ],
  "samplers": [
    {
      "magFilter": 9729,
      "minFilter": 9987,
      "wrapS": 10497,
      "wrapT": 10497
    }
  ],
  "scene": 0,
  "scenes": [
    {
      "name": "OSG_Scene",
      "nodes": [
        0
      ]
    }
  ],
  "textures": [
    {
      "sampler": 0,
      "source": 0
    }
  ]
}

