{
  "accessors": [
    {
      "bufferView": 2,
      "componentType": 5126,
      "count": 168,
      "max": [
        1,
        1,
        3.4310927391052246
      ],
      "min": [
        -1,
        -1,
        -1
      ],
      "type": "VEC3"
    },
    {
      "bufferView": 2,
      "byteOffset": 2016,
      "componentType": 5126,
      "count": 168,
      "max": [
        0.96592593193054199,
        0.96592581272125244,
        1
      ],
      "min": [
        -0.96592599153518677,
        -0.96592593193054199,
        -1
      ],
      "type": "VEC3"
    },
    {
      "bufferView": 0,
      "componentType": 5125,
      "count": 276,
      "max": [
        167
      ],
      "min": [
        0
      ],
      "type": "SCALAR"
    },
    {
      "bufferView": 2,
      "byteOffset": 4032,
      "componentType": 5126,
      "count": 232,
      "max": [
        0.64156037569046021,
        0.90340489149093628,
        0.74283939599990845
      ],
      "min": [
        -0.6412956714630127,
        -0.86284607648849487,
        -0.69160139560699463
      ],
      "type": "VEC3"
    },
    {
      "bufferView": 2,
      "byteOffset": 6816,
      "componentType": 5126,
      "count": 232,
      "max": [
        0.9998241662979126,
        0.99983268976211548,
        0.9998200535774231
      ],
      "min": [
        -0.9998241662979126,
        -0.99983268976211548,
        -0.99983501434326172
      ],
      "type": "VEC3"
    },
    {
      "bufferView": 0,
      "byteOffset": 1104,
      "componentType": 5125,
      "count": 348,
      "max": [
        231
      ],
      "min": [
        0
      ],
      "type": "SCALAR"
    },
    {
      "bufferView": 2,
      "byteOffset": 9600,
      "componentType": 5126,
      "count": 350,
      "max": [
        3.6063687801361084,
        1.0796760320663452,
        0.026136666536331177
      ],
      "min": [
        -0.88499718904495239,
        0.049618218094110489,
        -0.3002299964427948
      ],
      "type": "VEC3"
    },
    {
      "bufferView": 2,
      "byteOffset": 13800,
      "componentType": 5126,
      "count": 350,
      "max": [
        0.50717490911483765,
        0.9999924898147583,
        0.99999463558197021
      ],
      "min": [
        -0.5070149302482605,
        -0.9999924898147583,
        -0.99996507167816162
      ],
      "type": "VEC3"
    },
    {
      "bufferView": 0,
      "byteOffset": 2496,
      "componentType": 5125,
      "count": 1440,
      "max": [
        349
      ],
      "min": [
        0
      ],
      "type": "SCALAR"
    },
    {
      "bufferView": 2,
      "byteOffset": 18000,
      "componentType": 5126,
      "count": 20,
      "max": [
        1,
        1,
        1
      ],
      "min": [
        -1,
        -1,
        -1
      ],
      "type": "VEC3"
    },
    {
      "bufferView": 2,
      "byteOffset": 18240,
      "componentType": 5126,
      "count": 20,
      "max": [
        1,
        0,
        1
      ],
      "min": [
        -1,
        -1,
        -1
      ],
      "type": "VEC3"
    },
    {
      "bufferView": 1,
      "componentType": 5126,
      "count": 20,
      "max": [
        0,
        0
      ],
      "min": [
        0,
        0
      ],
      "type": "VEC2"
    },
    {
      "bufferView": 0,
      "byteOffset": 8256,
      "componentType": 5125,
      "count": 30,
      "max": [
        19
      ],
      "min": [
        0
      ],
      "type": "SCALAR"
    },
    {
      "bufferView": 2,
      "byteOffset": 18480,
      "componentType": 5126,
      "count": 384,
      "max": [
        1,
        1,
        1
      ],
      "min": [
        -1,
        -1,
        -1
      ],
      "type": "VEC3"
    },
    {
      "bufferView": 2,
      "byteOffset": 23088,
      "componentType": 5126,
      "count": 384,
      "max": [
        0.99879544973373413,
        0.99879544973373413,
        1
      ],
      "min": [
        -0.99879556894302368,
        -0.99879556894302368,
        -1
      ],
      "type": "VEC3"
    },
    {
      "bufferView": 0,
      "byteOffset": 8376,
      "componentType": 5125,
      "count": 756,
      "max": [
        383
      ],
      "min": [
        0
      ],
      "type": "SCALAR"
    },
    {
      "bufferView": 2,
      "byteOffset": 27696,
      "componentType": 5126,
      "count": 104,
      "max": [
        1,
        1,
        0.87359434366226196
      ],
      "min": [
        -1,
        -1,
        -1
      ],
      "type": "VEC3"
    },
    {
      "bufferView": 2,
      "byteOffset": 28944,
      "componentType": 5126,
      "count": 104,
      "max": [
        1,
        1,
        1
      ],
      "min": [
        -1,
        -1,
        -1
      ],
      "type": "VEC3"
    },
    {
      "bufferView": 3,
      "componentType": 5126,
      "count": 104,
      "max": [
        1,
        1,
        1,
        1
      ],
      "min": [
        -1,
        -1,
        0,
        1
      ],
      "type": "VEC4"
    },
    {
      "bufferView": 1,
      "byteOffset": 160,
      "componentType": 5126,
      "count": 104,
      "max": [
        1.2484531402587891,
        1.2967859506607056
      ],
      "min": [
        -0.27645140886306763,
        -0.22811877727508545
      ],
      "type": "VEC2"
    },
    {
      "bufferView": 0,
      "byteOffset": 11400,
      "componentType": 5125,
      "count": 156,
      "max": [
        103
      ],
      "min": [
        0
      ],
      "type": "SCALAR"
    },
    {
      "bufferView": 2,
      "byteOffset": 30192,
      "componentType": 5126,
      "count": 3042,
      "max": [
        0.60299938917160034,
        1.1192983388900757,
        4.5746479034423828
      ],
      "min": [
        0.45744127035140991,
        -1.6806325912475586,
        -1.7486765384674072
      ],
      "type": "VEC3"
    },
    {
      "bufferView": 2,
      "byteOffset": 66696,
      "componentType": 5126,
      "count": 3042,
      "max": [
        0.99999344348907471,
        0.99294513463973999,
        0.97136002779006958
      ],
      "min": [
        -0.99999380111694336,
        -0.99288719892501831,
        -0.96857726573944092
      ],
      "type": "VEC3"
    },
    {
      "bufferView": 0,
      "byteOffset": 12024,
      "componentType": 5125,
      "count": 14112,
      "max": [
        3041
      ],
      "min": [
        0
      ],
      "type": "SCALAR"
    },
    {
      "bufferView": 2,
      "byteOffset": 103200,
      "componentType": 5126,
      "count": 384,
      "max": [
        1,
        1,
        1
      ],
      "min": [
        -1,
        -1,
        -1
      ],
      "type": "VEC3"
    },
    {
      "bufferView": 2,
      "byteOffset": 107808,
      "componentType": 5126,
      "count": 384,
      "max": [
        0.99879544973373413,
        0.99879544973373413,
        1
      ],
      "min": [
        -0.99879556894302368,
        -0.99879556894302368,
        -1
      ],
      "type": "VEC3"
    },
    {
      "bufferView": 0,
      "byteOffset": 68472,
      "componentType": 5125,
      "count": 756,
      "max": [
        383
      ],
      "min": [
        0
      ],
      "type": "SCALAR"
    },
    {
      "bufferView": 2,
      "byteOffset": 112416,
      "componentType": 5126,
      "count": 168,
      "max": [
        1,
        1,
        3.4310927391052246
      ],
      "min": [
        -1,
        -1,
        -1
      ],
      "type": "VEC3"
    },
    {
      "bufferView": 2,
      "byteOffset": 114432,
      "componentType": 5126,
      "count": 168,
      "max": [
        0.96592593193054199,
        0.96592581272125244,
        1
      ],
      "min": [
        -0.96592599153518677,
        -0.96592593193054199,
        -1
      ],
      "type": "VEC3"
    },
    {
      "bufferView": 0,
      "byteOffset": 71496,
      "componentType": 5125,
      "count": 276,
      "max": [
        167
      ],
      "min": [
        0
      ],
      "type": "SCALAR"
    },
    {
      "bufferView": 2,
      "byteOffset": 116448,
      "componentType": 5126,
      "count": 232,
      "max": [
        0.64156037569046021,
        0.90340489149093628,
        0.74283939599990845
      ],
      "min": [
        -0.6412956714630127,
        -0.86284607648849487,
        -0.69160139560699463
      ],
      "type": "VEC3"
    },
    {
      "bufferView": 2,
      "byteOffset": 119232,
      "componentType": 5126,
      "count": 232,
      "max": [
        0.9998241662979126,
        0.99983268976211548,
        0.9998200535774231
      ],
      "min": [
        -0.9998241662979126,
        -0.99983268976211548,
        -0.99983501434326172
      ],
      "type": "VEC3"
    },
    {
      "bufferView": 0,
      "byteOffset": 72600,
      "componentType": 5125,
      "count": 348,
      "max": [
        231
      ],
      "min": [
        0
      ],
      "type": "SCALAR"
    }
  ],
  "asset": {
    "extras": {
      "author": "Limoonzz (https://sketchfab.com/Limoonzz)",
      "license": "CC-BY-4.0 (http://creativecommons.org/licenses/by/4.0/)",
      "source": "https://sketchfab.com/models/20c4121ec33842c79f2cb651e05efdbc",
      "title": "Flamingo"
    },
    "generator": "Sketchfab-4.7.0",
    "version": "2.0"
  },
  "bufferViews": [
    {
      "buffer": 0,
      "byteLength": 73992,
      "byteOffset": 0,
      "name": "floatBufferViews",
      "target": 34963
    },
    {
      "buffer": 0,
      "byteLength": 992,
      "byteOffset": 73992,
      "byteStride": 8,
      "name": "floatBufferViews",
      "target": 34962
    },
    {
      "buffer": 0,
      "byteLength": 122016,
      "byteOffset": 74984,
      "byteStride": 12,
      "name": "floatBufferViews",
      "target": 34962
    },
    {
      "buffer": 0,
      "byteLength": 1664,
      "byteOffset": 197000,
      "byteStride": 16,
      "name": "floatBufferViews",
      "target": 34962
    }
  ],
  "buffers": [
    {
      "byteLength": 198664,
      "uri": "scene.bin"
    }
  ],
  "images": [
    {
      "uri": "textures/Material.003_baseColor.jpeg"
    }
  ],
  "materials": [
    {
      "doubleSided": true,
      "name": "Material.002",
      "pbrMetallicRoughness": {
        "baseColorFactor": [
          0.19017700000000001,
          0.19017700000000001,
          0.19017700000000001,
          1
        ],
        "metallicFactor": 0,
        "roughnessFactor": 0.83184885500000005
      }
    },
    {
      "doubleSided": true,
      "name": "Material.001",
      "pbrMetallicRoughness": {
        "baseColorFactor": [
          0,
          0,
          0,
          1
        ],
        "metallicFactor": 0,
        "roughnessFactor": 0.82394172570000002
      }
    },
    {
      "doubleSided": true,
      "name": "Material.003",
      "pbrMetallicRoughness": {
        "baseColorFactor": [
          0.5,
          0.5,
          0.5,
          1
        ],
        "baseColorTexture": {
          "index": 0,
          "texCoord": 0
        },
        "metallicFactor": 0,
        "roughnessFactor": 1
      }
    },
    {
      "doubleSided": true,
      "emissiveFactor": [
        1,
        0.050734000000000001,
        0.87901200000000002
      ],
      "name": "Material",
      "pbrMetallicRoughness": {
        "baseColorFactor": [
          1,
          0.025367000000000001,
          0.43950600000000001,
          1
        ],
        "metallicFactor": 0,
        "roughnessFactor": 0.49828506100000003
      }
    }
  ],
  "meshes": [
    {
      "name": "Cylinder.002_Material.002_0",
      "primitives": [
        {
          "attributes": {
            "NORMAL": 1,
            "POSITION": 0
          },
          "indices": 2,
          "material": 0,
          "mode": 4
        }
      ]
    },
    {
      "name": "Cube.002_Material.002_0",
      "primitives": [
        {
          "attributes": {
            "NORMAL": 4,
            "POSITION": 3
          },
          "indices": 5,
          "material": 0,
          "mode": 4
        }
      ]
    },
    {
      "name": "BezierCurve.001_Material.001_0",
      "primitives": [
        {
          "attributes": {
            "NORMAL": 7,
            "POSITION": 6
          },
          "indices": 8,
          "material": 1,
          "mode": 4
        }
      ]
    },
    {
      "name": "Cube.001_Material.003_0",
      "primitives": [
        {
          "attributes": {
            "NORMAL": 10,
            "POSITION": 9,
            "TEXCOORD_0": 11
          },
          "indices": 12,
          "material": 2,
          "mode": 4
        }
      ]
    },
    {
      "name": "Cylinder_Material.001_0",
      "primitives": [
        {
          "attributes": {
            "NORMAL": 14,
            "POSITION": 13
          },
          "indices": 15,
          "material": 1,
          "mode": 4
        }
      ]
    },
    {
      "name": "Cube_Material.003_0",
      "primitives": [
        {
          "attributes": {
            "NORMAL": 17,
            "POSITION": 16,
            "TANGENT": 18,
            "TEXCOORD_0": 19
          },
          "indices": 20,
          "material": 2,
          "mode": 4
        }
      ]
    },
    {
      "name": "BezierCurve_Material_0",
      "primitives": [
        {
          "attributes": {
            "NORMAL": 22,
            "POSITION": 21
          },
          "indices": 23,
          "material": 3,
          "mode": 4
        }
      ]
    },
    {
      "name": "Cylinder.001_Material.001_0",
      "primitives": [
        {
          "attributes": {
            "NORMAL": 25,
            "POSITION": 24
          },
          "indices": 26,
          "material": 1,
          "mode": 4
        }
      ]
    },
    {
      "name": "Cylinder.003_Material.002_0",
      "primitives": [
        {
          "attributes": {
            "NORMAL": 28,
            "POSITION": 27
          },
          "indices": 29,
          "material": 0,
          "mode": 4
        }
      ]
    },
    {
      "name": "Cube.003_Material.002_0",
      "primitives": [
        {
          "attributes": {
            "NORMAL": 31,
            "POSITION": 30
          },
          "indices": 32,
          "material": 0,
          "mode": 4
        }
      ]
    }
  ],
  "nodes": [
    {
      "children": [
        1
      ],
      "name": "RootNode (gltf orientation matrix)",
      "rotation": [
        -0.70710678118654746,
        -0,
        -0,
        0.70710678118654757
      ]
    },
    {
      "children": [
        2
      ],
      "name": "RootNode (model correction matrix)"
    },
    {
      "children": [
        3
      ],
      "matrix": [
        1,
        0,
        0,
        0,
        0,
        0,
        1,
        0,
        0,
        -1,
        0,
        0,
        0,
        0,
        0,
        1
      ],
      "name": "74e46e10e2f54c7798826a5e37b72585.fbx"
    },
    {
      "children": [
        4,
        6,
        8,
        10,
        12,
        14,
        16,
        18,
        20,
        22,
        24
      ],
      "name": "RootNode"
    },
    {
      "children": [
        5
      ],
      "matrix": [
        0.22569473784869676,
        0.024660551936151309,
        -0.020894511564494896,
        0,
        -0.016242458991881134,
        0.21395824307179612,
        0.07707721888007793,
        0,
        0.027944697131492488,
        -0.07481024156559278,
        0.21355413033207057,
        0,
        34.475757598876953,
        -54.127182006835938,
        157.17390441894531,
        1
      ],
      "name": "Cylinder.002"
    },
    {
      "mesh": 0,
      "name": "Cylinder.002_Material.002_0"
    },
    {
      "children": [
        7
      ],
      "matrix": [
        2.0728713110557249,
        0.0043744189235679172,
        -0.21453489972079384,
        0,
        -0.24564518074412489,
        0.6278896991840035,
        -2.3606611136028777,
        0,
        0.03622605133060014,
        1.4405771661273608,
        0.37939575630039718,
        0,
        34.831501007080078,
        -53.45306396484375,
        154.94900512695312,
        1
      ],
      "name": "Cube.002"
    },
    {
      "mesh": 1,
      "name": "Cube.002_Material.002_0"
    },
    {
      "children": [
        9
      ],
      "matrix": [
        -9.2360512386919194,
        0,
        22.587710073262276,
        0,
        22.58771007326116,
        7.6605223607238502e-06,
        9.2360512386914611,
        0,
        -7.090654416191274e-06,
        24.4030590057361,
        -2.8993486827310789e-06,
        0,
        43.786090850830078,
        -48.463611602783203,
        63.477069854736328,
        1
      ],
      "name": "BezierCurve.001"
    },
    {
      "mesh": 2,
      "name": "BezierCurve.001_Material.001_0"
    },
    {
      "children": [
        11
      ],
      "matrix": [
        4.5448341369628906,
        0,
        0,
        0,
        0,
        -1.9564157093596127e-07,
        -1.2008394002914271,
        0,
        0,
        4.5448341369628302,
        -7.4044746531718192e-07,
        0,
        53.648609161376953,
        -48.697315216064453,
        40.115634918212891,
        1
      ],
      "name": "Cube.001"
    },
    {
      "mesh": 3,
      "name": "Cube.001_Material.003_0"
    },
    {
      "children": [
        13
      ],
      "matrix": [
        3.2249674797058105,
        0,
        0,
        0,
        0,
        -5.2541389281023294e-07,
        -3.2249674797057679,
        0,
        0,
        5.8547401428221884,
        -9.538582417312316e-07,
        0,
        35.965797424316406,
        -8.0431890487670898,
        26.274431228637695,
        1
      ],
      "name": "Cylinder"
    },
    {
      "mesh": 4,
      "name": "Cylinder_Material.001_0"
    },
    {
      "children": [
        15
      ],
      "matrix": [
        25.604175567626953,
        0,
        0,
        0,
        0,
        -4.1537262501163763e-06,
        -25.495389938354155,
        0,
        0,
        22.474740982055366,
        -3.6616000699519451e-06,
        0,
        36.629234313964844,
        -32.474685668945312,
        13.442747116088867,
        1
      ],
      "name": "Cube"
    },
    {
      "mesh": 5,
      "name": "Cube_Material.003_0"
    },
    {
      "children": [
        17
      ],
      "matrix": [
        63.670585632324219,
        0,
        0,
        0,
        0,
        -1.0373255068494042e-05,
        -63.67058563232338,
        0,
        0,
        63.67058563232338,
        -1.0373255068494042e-05,
        0,
        0,
        108.52828216552734,
        0,
        1
      ],
      "name": "BezierCurve"
    },
    {
      "mesh": 6,
      "name": "BezierCurve_Material_0"
    },
    {
      "children": [
        19
      ],
      "matrix": [
        -98.406517884102371,
        -17.777611740476608,
        -0.33728138209529679,
        0,
        -17.779752783465966,
        98.403637846792378,
        0.77648154988960272,
        0,
        0.19385728937604052,
        0.82407631405210147,
        -99.996416523693355,
        0,
        1094.9400634765625,
        368.50006103515625,
        18.0811767578125,
        1
      ],
      "name": "Camera"
    },
    {
      "name": ""
    },
    {
      "children": [
        21
      ],
      "matrix": [
        3.2249674797058105,
        0,
        0,
        0,
        0,
        -5.2541389281023294e-07,
        -3.2249674797057679,
        0,
        0,
        5.8547401428221884,
        -9.538582417312316e-07,
        0,
        36.181659698486328,
        -8.0431890487670898,
        -0.12302696704864502,
        1
      ],
      "name": "Cylinder.001"
    },
    {
      "mesh": 7,
      "name": "Cylinder.001_Material.001_0"
    },
    {
      "children": [
        23
      ],
      "matrix": [
        0.22569473784869676,
        0.024660551936151309,
        -0.020894511564494896,
        0,
        -0.016242458991881134,
        0.21395824307179612,
        0.07707721888007793,
        0,
        0.027944697131492488,
        -0.07481024156559278,
        0.21355413033207057,
        0,
        35.486213684082031,
        -54.127182006835938,
        157.13031005859375,
        1
      ],
      "name": "Cylinder.003"
    },
    {
      "mesh": 8,
      "name": "Cylinder.003_Material.002_0"
    },
    {
      "children": [
        25
      ],
      "matrix": [
        -2.0790215768421727,
        -0.044476249863085168,
        -0.13613218158750642,
        0,
        -0.16034851355761676,
        -0.0029336558521996215,
        2.4498138031907994,
        0,
        -0.031851394922381489,
        1.4897991262099932,
        -0.00030074363381094824,
        0,
        53.382980346679688,
        -48.398731231689453,
        43.211555480957031,
        1
      ],
      "name": "Cube.003"
    },
    {
      "mesh": 9,
      "name": "Cube.003_Material.002_0"
    }
  ],
  "samplers": [
    {
      "magFilter": 9729,
      "minFilter": 9987,
      "wrapS": 10497,
      "wrapT": 10497
    }
  ],
  "scene": 0,
  "scenes": [
    {
      "name": "OSG_Scene",
      "nodes": [
        0
      ]
    }
  ],
  "textures": [
    {
      "sampler": 0,
      "source": 0
    }
  ]
}

