{
  "accessors": [
    {
      "bufferView": 1,
      "componentType": 5126,
      "count": 55682,
      "max": [
        0.6113700270652771,
        0.91527998447418213,
        0.7330399751663208
      ],
      "min": [
        -0.36794999241828918,
        -0.82877999544143677,
        -0.26824000477790833
      ],
      "type": "VEC3"
    },
    {
      "bufferView": 1,
      "byteOffset": 668184,
      "componentType": 5126,
      "count": 55682,
      "max": [
        0.99999707937240601,
        0.99999731779098511,
        1
      ],
      "min": [
        -0.99999910593032837,
        -0.99994546175003052,
        -0.99996596574783325
      ],
      "type": "VEC3"
    },
    {
      "bufferView": 0,
      "componentType": 5125,
      "count": 334230,
      "max": [
        55681
      ],
      "min": [
        0
      ],
      "type": "SCALAR"
    }
  ],
  "asset": {
    "extras": {
      "author": "kolen (https://sketchfab.com/kolen)",
      "license": "CC-BY-4.0 (http://creativecommons.org/licenses/by/4.0/)",
      "source": "https://sketchfab.com/models/48a564cc64554bb9961eaad5216d2f2e",
      "title": "Helios statue"
    },
    "generator": "Sketchfab-3.18.6",
    "version": "2.0"
  },
  "bufferViews": [
    {
      "buffer": 0,
      "byteLength": 1336920,
      "byteOffset": 0,
      "name": "floatBufferViews",
      "target": 34963
    },
    {
      "buffer": 0,
      "byteLength": 1336368,
      "byteOffset": 1336920,
      "byteStride": 12,
      "name": "floatBufferViews",
      "target": 34962
    }
  ],
  "buffers": [
    {
      "byteLength": 2673288,
      "uri": "scene.bin"
    }
  ],
  "extensionsRequired": [
    "KHR_materials_pbrSpecularGlossiness"
  ],
  "extensionsUsed": [
    "KHR_materials_pbrSpecularGlossiness"
  ],
  "materials": [
    {
      "doubleSided": true,
      "emissiveFactor": [
        0,
        0,
        0
      ],
      "extensions": {
        "KHR_materials_pbrSpecularGlossiness": {
          "diffuseFactor": [
            0.5,
            0.5,
            0.5,
            1
          ],
          "glossinessFactor": 0.28000000000000003,
          "specularFactor": [
            0,
            0,
            0
          ]
        }
      },
      "name": "material-0"
    }
  ],
  "meshes": [
    {
      "name": "mesh1_0",
      "primitives": [
        {
          "attributes": {
            "NORMAL": 1,
            "POSITION": 0
          },
          "indices": 2,
          "material": 0,
          "mode": 4
        }
      ]
    }
  ],
  "nodes": [
    {
      "children": [
        1
      ],
      "name": "RootNode (gltf orientation matrix)",
      "rotation": [
        -0.70710678118654746,
        -0,
        -0,
        0.70710678118654757
      ]
    },
    {
      "children": [
        2
      ],
      "name": "RootNode (model correction matrix)"
    },
    {
      "children": [
        3,
        5,
        7,
        9
      ],
      "name": "Root"
    },
    {
      "children": [
        4
      ],
      "matrix": [
        -0.29086000000000006,
        0.95517000000000007,
        -0.05519000000000001,
        0,
        -0.77110000000000001,
        -0.19988000000000003,
        0.60452000000000006,
        0,
        0.56639000000000006,
        0.21839000000000003,
        0.7946700000000001,
        0,
        4.0762500000000008,
        1.00545,
        5.9038600000000008,
        1
      ],
      "name": "Lamp"
    },
    {
      "name": "Lamp"
    },
    {
      "children": [
        6
      ],
      "matrix": [
        0.77480000000000004,
        0.63221000000000005,
        0,
        0,
        0,
        -0,
        -1,
        0,
        -0.63221000000000005,
        0.77480000000000004,
        -0,
        0,
        0.060110000000000018,
        0.018690000000000002,
        0.84215000000000007,
        1
      ],
      "name": "mesh1"
    },
    {
      "mesh": 0,
      "name": "mesh1_0"
    },
    {
      "children": [
        8
      ],
      "matrix": [
        0.006720000000000002,
        0.0021800000000000005,
        7.9918800000000001,
        0,
        -2.4695399999999998,
        7.6007699999999998,
        0,
        0,
        -7.6007600000000002,
        -2.4695399999999998,
        0.007060000000000002,
        0,
        -3.36876,
        -0.74658000000000002,
        1.1311,
        1
      ],
      "name": "Area"
    },
    {
      "name": "Area"
    },
    {
      "children": [
        10
      ],
      "matrix": [
        -0.06584000000000001,
        0.017650000000000006,
        -5.2008999999999999,
        0,
        1.34674,
        5.0239699999999994,
        0,
        0,
        5.0235399999999997,
        -1.34663,
        -0.068160000000000026,
        0,
        3.7806700000000002,
        -0.70366000000000006,
        0.49620000000000003,
        1
      ],
      "name": "Area.001"
    },
    {
      "name": "Area.001"
    }
  ],
  "scene": 0,
  "scenes": [
    {
      "name": "OSG_Scene",
      "nodes": [
        0
      ]
    }
  ]
}

