{
  "accessors": [
    {
      "bufferView": 1,
      "componentType": 5126,
      "count": 24478,
      "max": [
        0.14407797157764435,
        0.1443668007850647,
        0.48470625281333923
      ],
      "min": [
        -0.14497554302215576,
        -0.1465163379907608,
        -0.48835846781730652
      ],
      "type": "VEC3"
    },
    {
      "bufferView": 1,
      "byteOffset": 293736,
      "componentType": 5126,
      "count": 24478,
      "max": [
        0.99999094009399414,
        0.99999243021011353,
        0.99998569488525391
      ],
      "min": [
        -0.99998515844345093,
        -0.99999880790710449,
        -0.99978899955749512
      ],
      "type": "VEC3"
    },
    {
      "bufferView": 2,
      "componentType": 5126,
      "count": 24478,
      "max": [
        1,
        1,
        1,
        1
      ],
      "min": [
        0.23137255012989044,
        0.12549020349979401,
        0.066666670143604279,
        1
      ],
      "type": "VEC4"
    },
    {
      "bufferView": 0,
      "componentType": 5125,
      "count": 146856,
      "max": [
        24477
      ],
      "min": [
        0
      ],
      "type": "SCALAR"
    },
    {
      "bufferView": 1,
      "byteOffset": 587472,
      "componentType": 5126,
      "count": 19466,
      "max": [
        0.14803296327590942,
        0.14973674714565277,
        0.15301519632339478
      ],
      "min": [
        -0.14761488139629364,
        -0.14749035239219666,
        -0.034779123961925507
      ],
      "type": "VEC3"
    },
    {
      "bufferView": 1,
      "byteOffset": 821064,
      "componentType": 5126,
      "count": 19466,
      "max": [
        0.99997442960739136,
        0.99995648860931396,
        0.99999541044235229
      ],
      "min": [
        -0.99994468688964844,
        -0.99997615814208984,
        -0.99999505281448364
      ],
      "type": "VEC3"
    },
    {
      "bufferView": 2,
      "byteOffset": 391648,
      "componentType": 5126,
      "count": 19466,
      "max": [
        1,
        1,
        1,
        1
      ],
      "min": [
        0.85490196943283081,
        0.14117647707462311,
        0.078431375324726105,
        1
      ],
      "type": "VEC4"
    },
    {
      "bufferView": 0,
      "byteOffset": 587424,
      "componentType": 5125,
      "count": 116832,
      "max": [
        19465
      ],
      "min": [
        0
      ],
      "type": "SCALAR"
    },
    {
      "bufferView": 1,
      "byteOffset": 1054656,
      "componentType": 5126,
      "count": 3816,
      "max": [
        0.11336176097393036,
        0.11335963010787964,
        0.36861535906791687
      ],
      "min": [
        -0.11378807574510574,
        -0.11328655481338501,
        -0.46157962083816528
      ],
      "type": "VEC3"
    },
    {
      "bufferView": 1,
      "byteOffset": 1100448,
      "componentType": 5126,
      "count": 3816,
      "max": [
        0.99997812509536743,
        0.99994558095932007,
        0.99998915195465088
      ],
      "min": [
        -0.99989610910415649,
        -0.9999624490737915,
        -0.99993401765823364
      ],
      "type": "VEC3"
    },
    {
      "bufferView": 2,
      "byteOffset": 703104,
      "componentType": 5126,
      "count": 3816,
      "max": [
        0.25490197539329529,
        0.15294118225574493,
        0.10196078568696976,
        1
      ],
      "min": [
        0.25490197539329529,
        0.14901961386203766,
        0.098039217293262482,
        1
      ],
      "type": "VEC4"
    },
    {
      "bufferView": 0,
      "byteOffset": 1054752,
      "componentType": 5125,
      "count": 22872,
      "max": [
        3815
      ],
      "min": [
        0
      ],
      "type": "SCALAR"
    },
    {
      "bufferView": 1,
      "byteOffset": 1146240,
      "componentType": 5126,
      "count": 13802,
      "max": [
        0.077641308307647705,
        0.075696356594562531,
        0.52886307239532471
      ],
      "min": [
        -0.076027177274227142,
        -0.080141931772232056,
        0.47031179070472717
      ],
      "type": "VEC3"
    },
    {
      "bufferView": 1,
      "byteOffset": 1311864,
      "componentType": 5126,
      "count": 13802,
      "max": [
        0.99965876340866089,
        0.99998557567596436,
        0.99999880790710449
      ],
      "min": [
        -0.99927669763565063,
        -0.9999082088470459,
        -0.99999886751174927
      ],
      "type": "VEC3"
    },
    {
      "bufferView": 2,
      "byteOffset": 764160,
      "componentType": 5126,
      "count": 13802,
      "max": [
        0.99607843160629272,
        0.99607843160629272,
        0.99607843160629272,
        1
      ],
      "min": [
        0.729411780834198,
        0.066666670143604279,
        0.11764705926179886,
        1
      ],
      "type": "VEC4"
    },
    {
      "bufferView": 0,
      "byteOffset": 1146240,
      "componentType": 5125,
      "count": 82812,
      "max": [
        13801
      ],
      "min": [
        0
      ],
      "type": "SCALAR"
    },
    {
      "bufferView": 1,
      "byteOffset": 1477488,
      "componentType": 5126,
      "count": 2217,
      "max": [
        0.1359344869852066,
        0.13446016609668732,
        0.39163190126419067
      ],
      "min": [
        -0.14813098311424255,
        -0.12059976160526276,
        -0.42155256867408752
      ],
      "type": "VEC3"
    },
    {
      "bufferView": 1,
      "byteOffset": 1504092,
      "componentType": 5126,
      "count": 2217,
      "max": [
        0.99937552213668823,
        0.99981182813644409,
        0.99998074769973755
      ],
      "min": [
        -0.99992257356643677,
        -0.9999701976776123,
        -0.99898219108581543
      ],
      "type": "VEC3"
    },
    {
      "bufferView": 2,
      "byteOffset": 984992,
      "componentType": 5126,
      "count": 2217,
      "max": [
        1,
        1,
        1,
        1
      ],
      "min": [
        0.64705884456634521,
        0.83529412746429443,
        0.7764706015586853,
        1
      ],
      "type": "VEC4"
    },
    {
      "bufferView": 0,
      "byteOffset": 1477488,
      "componentType": 5125,
      "count": 12378,
      "max": [
        2216
      ],
      "min": [
        0
      ],
      "type": "SCALAR"
    }
  ],
  "asset": {
    "extras": {
      "author": "alecz1k (https://sketchfab.com/alecz1k)",
      "license": "CC-BY-NC-4.0 (http://creativecommons.org/licenses/by-nc/4.0/)",
      "source": "https://sketchfab.com/models/88fedfe3e9184068ae29e72d3d2b2aae",
      "title": "Coke Bottle"
    },
    "generator": "Sketchfab-4.32.0",
    "version": "2.0"
  },
  "bufferViews": [
    {
      "buffer": 0,
      "byteLength": 1527000,
      "byteOffset": 0,
      "name": "floatBufferViews",
      "target": 34963
    },
    {
      "buffer": 0,
      "byteLength": 1530696,
      "byteOffset": 1527000,
      "byteStride": 12,
      "name": "floatBufferViews",
      "target": 34962
    },
    {
      "buffer": 0,
      "byteLength": 1020464,
      "byteOffset": 3057696,
      "byteStride": 16,
      "name": "floatBufferViews",
      "target": 34962
    }
  ],
  "buffers": [
    {
      "byteLength": 4078160,
      "uri": "scene.bin"
    }
  ],
  "materials": [
    {
      "doubleSided": true,
      "name": "Scene_-_Root",
      "pbrMetallicRoughness": {
        "baseColorFactor": [
          1,
          1,
          1,
          1
        ],
        "metallicFactor": 0.95775685820000001,
        "roughnessFactor": 0.1464361035
      }
    }
  ],
  "meshes": [
    {
      "name": "Layer_1__0",
      "primitives": [
        {
          "attributes": {
            "COLOR_0": 2,
            "NORMAL": 1,
            "POSITION": 0
          },
          "indices": 3,
          "material": 0,
          "mode": 4
        }
      ]
    },
    {
      "name": "Layer_3__0",
      "primitives": [
        {
          "attributes": {
            "COLOR_0": 6,
            "NORMAL": 5,
            "POSITION": 4
          },
          "indices": 7,
          "material": 0,
          "mode": 4
        }
      ]
    },
    {
      "name": "Layer_5__0",
      "primitives": [
        {
          "attributes": {
            "COLOR_0": 10,
            "NORMAL": 9,
            "POSITION": 8
          },
          "indices": 11,
          "material": 0,
          "mode": 4
        }
      ]
    },
    {
      "name": "Coca-logo_1__0",
      "primitives": [
        {
          "attributes": {
            "COLOR_0": 14,
            "NORMAL": 13,
            "POSITION": 12
          },
          "indices": 15,
          "material": 0,
          "mode": 4
        }
      ]
    },
    {
      "name": "Layer_7__0",
      "primitives": [
        {
          "attributes": {
            "COLOR_0": 18,
            "NORMAL": 17,
            "POSITION": 16
          },
          "indices": 19,
          "material": 0,
          "mode": 4
        }
      ]
    }
  ],
  "nodes": [
    {
      "children": [
        1
      ],
      "name": "RootNode (gltf orientation matrix)",
      "rotation": [
        -0.70710678118654746,
        -0,
        -0,
        0.70710678118654757
      ]
    },
    {
      "children": [
        2
      ],
      "matrix": [
        -0.9999997615814209,
        0.00067315530031919479,
        0,
        0,
        0.00067315530031919479,
        0.9999997615814209,
        0,
        0,
        0,
        0,
        -1,
        0,
        -9.7263698989991099e-05,
        3.2700000929253292e-08,
        -0.040504604578018188,
        1
      ],
      "name": "RootNode (model correction matrix)"
    },
    {
      "children": [
        3
      ],
      "matrix": [
        1,
        0,
        0,
        0,
        0,
        -1,
        0,
        0,
        0,
        0,
        -1,
        0,
        0,
        0,
        0,
        1
      ],
      "name": "666382b9ab5f40a58bcb52657f6ec2b0.fbx"
    },
    {
      "children": [
        4,
        6,
        8,
        10,
        12
      ],
      "name": "RootNode"
    },
    {
      "children": [
        5
      ],
      "name": "Layer_1"
    },
    {
      "mesh": 0,
      "name": "Layer_1__0"
    },
    {
      "children": [
        7
      ],
      "name": "Layer_3"
    },
    {
      "mesh": 1,
      "name": "Layer_3__0"
    },
    {
      "children": [
        9
      ],
      "name": "Layer_5"
    },
    {
      "mesh": 2,
      "name": "Layer_5__0"
    },
    {
      "children": [
        11
      ],
      "name": "Coca-logo_1"
    },
    {
      "mesh": 3,
      "name": "Coca-logo_1__0"
    },
    {
      "children": [
        13
      ],
      "name": "Layer_7"
    },
    {
      "mesh": 4,
      "name": "Layer_7__0"
    }
  ],
  "scene": 0,
  "scenes": [
    {
      "name": "OSG_Scene",
      "nodes": [
        0
      ]
    }
  ]
}

