{
  "accessors": [
    {
      "bufferView": 2,
      "componentType": 5126,
      "count": 197,
      "max": [
        0.5825200080871582,
        0.1321599930524826,
        5.0735502243041992
      ],
      "min": [
        -0.5825200080871582,
        -0.1321599930524826,
        -2.1642799377441406
      ],
      "type": "VEC3"
    },
    {
      "bufferView": 2,
      "byteOffset": 2364,
      "componentType": 5126,
      "count": 197,
      "max": [
        1,
        1,
        1
      ],
      "min": [
        -1,
        -1,
        -1
      ],
      "type": "VEC3"
    },
    {
      "bufferView": 3,
      "componentType": 5126,
      "count": 197,
      "max": [
        1,
        1,
        1,
        1
      ],
      "min": [
        -1,
        -0.99997520446777344,
        -0.9999997615814209,
        -1
      ],
      "type": "VEC4"
    },
    {
      "bufferView": 1,
      "componentType": 5126,
      "count": 197,
      "max": [
        0.9750099778175354,
        0.99046999216079712
      ],
      "min": [
        0.016349999234080315,
        0.010449999943375587
      ],
      "type": "VEC2"
    },
    {
      "bufferView": 0,
      "componentType": 5125,
      "count": 816,
      "max": [
        196
      ],
      "min": [
        0
      ],
      "type": "SCALAR"
    },
    {
      "bufferView": 2,
      "byteOffset": 4728,
      "componentType": 5126,
      "count": 197,
      "max": [
        0.58091002702713013,
        0.1467600017786026,
        4.8850297927856445
      ],
      "min": [
        -0.58091002702713013,
        -0.1467600017786026,
        -2.0938301086425781
      ],
      "type": "VEC3"
    },
    {
      "bufferView": 2,
      "byteOffset": 7092,
      "componentType": 5126,
      "count": 197,
      "max": [
        1,
        0.99999946355819702,
        1
      ],
      "min": [
        -1,
        -0.99999946355819702,
        -1
      ],
      "type": "VEC3"
    },
    {
      "bufferView": 3,
      "byteOffset": 3152,
      "componentType": 5126,
      "count": 197,
      "max": [
        1,
        1,
        0.99991190433502197,
        1
      ],
      "min": [
        -1,
        -1,
        -0.9999997615814209,
        -1
      ],
      "type": "VEC4"
    },
    {
      "bufferView": 0,
      "byteOffset": 3264,
      "componentType": 5125,
      "count": 816,
      "max": [
        196
      ],
      "min": [
        0
      ],
      "type": "SCALAR"
    }
  ],
  "asset": {
    "extras": {
      "author": "Offy (https://sketchfab.com/axe163)",
      "license": "CC-BY-4.0 (http://creativecommons.org/licenses/by/4.0/)",
      "source": "https://sketchfab.com/models/5ca73c3167c74bfbb123f8bb86d56e5b",
      "title": "Sword1"
    },
    "generator": "Sketchfab-3.18.2",
    "version": "2.0"
  },
  "bufferViews": [
    {
      "buffer": 0,
      "byteLength": 6528,
      "byteOffset": 0,
      "name": "floatBufferViews",
      "target": 34963
    },
    {
      "buffer": 0,
      "byteLength": 1576,
      "byteOffset": 6528,
      "byteStride": 8,
      "name": "floatBufferViews",
      "target": 34962
    },
    {
      "buffer": 0,
      "byteLength": 9456,
      "byteOffset": 8104,
      "byteStride": 12,
      "name": "floatBufferViews",
      "target": 34962
    },
    {
      "buffer": 0,
      "byteLength": 6304,
      "byteOffset": 17560,
      "byteStride": 16,
      "name": "floatBufferViews",
      "target": 34962
    }
  ],
  "buffers": [
    {
      "byteLength": 23864,
      "uri": "scene.bin"
    }
  ],
  "extensionsUsed": [
    "KHR_materials_unlit"
  ],
  "images": [
    {
      "uri": "textures/Material.003_baseColor.png"
    }
  ],
  "materials": [
    {
      "doubleSided": false,
      "emissiveFactor": [
        0,
        0,
        0
      ],
      "extensions": {
        "KHR_materials_unlit": {}
      },
      "name": "Metal.001",
      "pbrMetallicRoughness": {
        "baseColorFactor": [
          0,
          0,
          0,
          1
        ],
        "metallicFactor": 0,
        "roughnessFactor": 1
      }
    },
    {
      "doubleSided": true,
      "emissiveFactor": [
        0,
        0,
        0
      ],
      "extensions": {
        "KHR_materials_unlit": {}
      },
      "name": "Material.003",
      "pbrMetallicRoughness": {
        "baseColorFactor": [
          1,
          1,
          1,
          1
        ],
        "baseColorTexture": {
          "index": 0,
          "texCoord": 0
        },
        "metallicFactor": 0,
        "roughnessFactor": 1
      }
    }
  ],
  "meshes": [
    {
      "name": "Cube.001",
      "primitives": [
        {
          "attributes": {
            "NORMAL": 1,
            "POSITION": 0,
            "TANGENT": 2,
            "TEXCOORD_0": 3
          },
          "indices": 4,
          "material": 1,
          "mode": 4
        }
      ]
    },
    {
      "name": "Cube.008",
      "primitives": [
        {
          "attributes": {
            "NORMAL": 6,
            "POSITION": 5,
            "TANGENT": 7
          },
          "indices": 8,
          "material": 0,
          "mode": 4
        }
      ]
    }
  ],
  "nodes": [
    {
      "children": [
        1
      ],
      "name": "RootNode (gltf orientation matrix)",
      "rotation": [
        -0.70710678118654746,
        -0,
        -0,
        0.70710678118654757
      ]
    },
    {
      "children": [
        2
      ],
      "name": "RootNode (model correction matrix)"
    },
    {
      "children": [
        3,
        5
      ],
      "name": "Root"
    },
    {
      "children": [
        4
      ],
      "matrix": [
        1.2946,
        0,
        0,
        0,
        0,
        1.2946,
        0,
        0,
        0,
        0,
        1.2946,
        0,
        0,
        0,
        0,
        1
      ],
      "name": "Cube.001"
    },
    {
      "mesh": 0,
      "name": "Cube.001"
    },
    {
      "children": [
        6
      ],
      "matrix": [
        1.3565199999999999,
        0,
        0,
        0,
        0,
        1.3565199999999999,
        0,
        0,
        0,
        0,
        1.3565199999999999,
        0,
        0,
        0,
        0,
        1
      ],
      "name": "Cube.008"
    },
    {
      "mesh": 1,
      "name": "Cube.008"
    }
  ],
  "samplers": [
    {
      "magFilter": 9729,
      "minFilter": 9987,
      "wrapS": 10497,
      "wrapT": 10497
    }
  ],
  "scene": 0,
  "scenes": [
    {
      "name": "OSG_Scene",
      "nodes": [
        0
      ]
    }
  ],
  "textures": [
    {
      "sampler": 0,
      "source": 0
    }
  ]
}

